<svg width="322.895" height="203.537" viewBox="0 0 322.895 203.537" xmlns="http://www.w3.org/2000/svg" xmlns:xlink="http://www.w3.org/1999/xlink" id="uuid-afb5dd8a-a1d3-4019-a25d-05fd1737063e" overflow="hidden"><style>
.MsftOfcThm_Accent4_Fill_v2 {
 fill:#51C8FF; 
}
</style>
<path d="M23.227 131.513C24.007 132.35 24.886 133.109 25.72 133.885 27.518 135.362 28.931 136.747 30.165 137.897 43.772 149.679 59.607 158.685 75.937 166.018 84.12 169.685 92.465 172.938 100.872 175.93 109.289 178.929 117.726 181.643 126.273 184.263 143.397 189.251 160.81 193.668 178.509 196.952 187.334 198.678 196.269 199.95 205.198 201.11 214.164 202.086 223.135 202.971 232.153 203.254 236.649 203.51 241.165 203.478 245.664 203.523 247.912 203.582 250.169 203.438 252.418 203.398 254.668 203.315 256.916 203.316 259.163 203.167 263.654 202.833 268.145 202.678 272.609 202.121 274.844 201.884 277.077 201.647 279.309 201.411 281.584 201.118 283.883 200.771 286.2 200.347 290.837 199.461 295.572 198.277 300.285 196.268 302.634 195.265 304.981 194.085 307.227 192.577 308.365 191.875 309.441 190.996 310.521 190.159 311.561 189.237 312.613 188.337 313.554 187.282 314.548 186.292 315.387 185.144 316.26 184.037 317.046 182.861 317.855 181.689 318.489 180.435 319.825 177.962 320.84 175.352 321.501 172.743 322.88 167.509 323.085 162.336 322.759 157.434 322.666 156.035 322.469 153.92 322.028 151.236 321.603 148.557 320.863 145.28 319.843 141.712 317.819 134.5 314.366 125.5 309.097 115.92 303.858 106.325 296.814 96.211 288.506 86.268 280.142 76.374 270.502 66.454 259.898 57.247 238.787 38.673 213.43 23.753 190.075 14.227 166.636 4.754 145.381 0.601 132.425 0 128.598 0.376 125.429 1.386 123.02 2.607 121.345 3.463 118.283 4.544 116.653 5.746 115.017 6.947 114.794 8.269 118.633 9.584 120.149 10.103 121.859 10.614 123.721 11.117 124.653 11.357 125.622 11.607 126.624 11.866 127.619 12.153 128.645 12.449 129.699 12.753 131.807 13.344 134.027 13.932 136.317 14.512 136.889 14.658 137.466 14.804 138.046 14.952 138.621 15.123 139.199 15.296 139.78 15.469 140.943 15.808 142.118 16.152 143.3 16.496 152.797 19.082 162.516 22.539 170.056 25.521 183.518 31.057 197.336 37.665 210.388 45.31 225.496 54.052 239.946 64.374 253.164 76.1L258.096 80.526C259.724 82.018 261.25 83.612 262.832 85.151 264.388 86.714 265.996 88.229 267.508 89.832L271.963 94.708C274.975 97.922 277.789 101.293 280.494 104.697 283.198 108.105 285.756 111.586 288.119 115.146 292.42 121.582 296.102 128.248 299.01 135.091 300.437 138.52 301.727 141.976 302.748 145.477 303.028 146.347 303.228 147.233 303.473 148.108 303.719 148.991 303.941 149.86 304.122 150.703 304.503 152.403 304.818 154.097 305.022 155.76 305.47 159.092 305.507 162.312 305.133 165.21 304.937 166.655 304.608 167.994 304.219 169.25 303.774 170.467 303.271 171.6 302.65 172.609 302.502 172.868 302.31 173.09 302.151 173.337 301.994 173.584 301.825 173.824 301.62 174.04L301.06 174.725 300.422 175.359 300.111 175.683 299.753 175.978 299.049 176.581C298.506 176.937 298.045 177.353 297.443 177.684 295.205 179.118 292.374 180.255 289.233 181.138 286.528 181.985 283.552 182.619 280.436 183.128 277.359 183.658 273.935 183.956 270.612 184.344 267.28 184.782 263.905 184.939 260.535 185.195 257.169 185.5 253.77 185.507 250.376 185.643 236.785 185.977 223.042 185.256 209.367 183.674 200.012 182.525 190.605 181.187 181.24 179.346 170.361 177.013 159.546 174.287 148.799 171.229 138.061 168.147 127.368 164.77 116.747 161.209 95.57 154.08 74.931 145.948 56.632 134.545L53.014 132.299 51.202 131.174 49.442 129.983 45.908 127.604 42.493 125.077 40.778 123.815 39.135 122.475 35.839 119.793 32.691 116.954 31.114 115.532C30.593 115.053 30.117 114.533 29.615 114.037L26.633 111.023C25.669 110.022 24.8 109.03 23.937 107.999 22.232 105.945 20.693 103.801 19.414 101.606 16.845 97.224 15.396 92.613 15.838 88.636 16.039 87.241 16.366 85.868 16.97 84.567 17.57 83.261 18.412 81.984 19.477 80.752 21.606 78.279 24.594 76.037 27.949 73.999 29.617 72.971 31.423 71.995 33.27 71.044 35.102 70.085 36.924 69.1 38.822 68.254 40.707 67.386 42.567 66.456 44.508 65.694 46.44 64.917 48.336 64.044 50.315 63.365 65.957 57.458 82.716 54.069 99.669 52.997 116.635 51.931 133.797 53.164 150.579 56.382 167.37 59.607 183.791 64.812 199.504 71.861 206.302 75.291 213.05 79.151 219.502 83.487 220.597 84.26 221.925 85.033 223.242 85.736 224.578 86.427 225.858 87.089 226.861 87.608 231.371 89.917 233.287 90.025 232.123 87.695 229.868 83.072 224.949 77.066 217.475 70.812 210.005 64.583 199.979 58.131 187.95 52.753 166.082 42.983 142.123 37.38 117.755 36.435 105.577 35.977 93.397 36.517 81.262 38.421 75.182 39.283 69.149 40.652 63.106 42.162 61.608 42.592 60.106 43.022 58.601 43.454L56.343 44.109 54.105 44.851C52.613 45.354 51.118 45.858 49.619 46.363 48.141 46.93 46.658 47.499 45.172 48.069 38.397 50.762 31.75 53.777 25.391 57.326 22.213 58.998 18.916 60.955 15.625 63.294 12.354 65.676 9.03 68.482 6.189 72.241 4.776 74.11 3.502 76.198 2.488 78.462L1.79 80.195C1.569 80.777 1.409 81.381 1.224 81.975 1.056 82.574 0.855 83.166 0.732 83.774L0.392 85.604C-0.444 90.523 0.135 95.366 1.337 99.617 2.549 103.894 4.358 107.703 6.437 111.15 8.524 114.596 10.875 117.719 13.39 120.631 14.187 121.672 14.985 122.518 15.785 123.464L18.187 126.233C19.799 128.067 21.548 129.753 23.226 131.514Z" class="MsftOfcThm_Accent4_Fill_v2" stroke="none" stroke-width="1" stroke-linecap="butt" stroke-linejoin="miter" stroke-miterlimit="4" fill="#FFFFFF" fill-opacity="1"/></svg>