<svg width="394.942" height="53.567" viewBox="0 0 394.942 53.567" xmlns="http://www.w3.org/2000/svg" xmlns:xlink="http://www.w3.org/1999/xlink" id="uuid-95950b9f-4f93-4c35-b41f-505250fd7e11" overflow="hidden"><style>
.MsftOfcThm_Accent4_Fill_v2 {
 fill:#51C8FF; 
}
</style>
<path d="M308.59 19.71C309.717 19.739 310.872 19.77 312.002 19.799 314.312 19.751 316.268 19.814 317.944 19.955 343.001 20.652 368.652 20.993 394.792 21.055L394.602 0C389.1 0.14 383.549 0.281 377.968 0.423 372.397 0.671 366.796 0.92 361.183 1.17 342.404 2.414 323.646 4.095 304.947 6.046 286.255 8.061 267.624 10.357 249.093 12.822 230.571 15.364 212.145 18.038 193.866 20.878 175.593 23.764 157.456 26.719 139.502 29.83 135.017 30.634 122.276 32.816 104.328 36.487L107.551 52.963C122.379 50.658 141.953 49.75 163.176 49.406 184.432 49.069 207.462 49.305 229.872 49.479 252.284 49.664 274.092 49.773 292.95 49.311 297.66 49.215 302.192 49.054 306.501 48.863 310.81 48.672 314.887 48.49 318.719 48.193 322.547 47.917 326.111 47.62 329.374 47.301 332.646 46.931 335.616 46.533 338.246 46.123 340.166 45.475 341.891 44.806 343.421 44.046 344.952 43.271 346.28 42.457 347.402 41.605 350.557 39.24 359.154 34.869 350.512 33.874 347.102 33.462 342.923 33.338 338.165 33.08 335.797 32.977 333.309 32.902 330.747 32.848 328.173 32.776 325.521 32.702 322.838 32.627 320.153 32.573 317.436 32.518 314.733 32.464 312.02 32.393 309.321 32.323 306.68 32.254 301.404 32.137 296.35 31.992 291.889 31.796 275.899 31.147 259.015 30.742 242.292 30.531 222.989 30.274 203.415 30.318 183.811 30.71 164.197 31.131 144.597 31.744 125.009 33.385 123.286 33.539 121.567 33.693 119.854 33.845 118.141 33.999 116.442 34.118 114.719 34.383 111.287 34.838 107.901 35.288 104.591 35.727L108.081 53.567C135.179 47.922 161.753 43.806 188.681 39.931 217.621 35.15 247.298 30.755 276.929 27.186 287.067 25.927 297.264 24.817 307.474 23.688 336.648 21.268 365.838 19.62 394.94 19.103L394.785 1.948C376.067 1.908 357.378 1.868 338.685 1.829 313.291 2.261 287.48 3.34 262.052 3.825 190.266 5.194 113.36 1.053 39.189 7.509 30.965 7.879 22.616 8.361 14.294 8.84 11.418 9.006 7.765 9.754 5.414 10.306 0.175 11.538-1.328 12.72 1.195 13.706 11.146 17.597 32.271 19.149 58.898 19.468 83.108 19.759 107.561 19.962 132.186 20.092 156.806 20.221 181.147 20.535 206.702 20.202 235.964 19.883 265.033 19.567 294.121 19.25 298.956 19.404 303.786 19.558 308.591 19.711Z" class="MsftOfcThm_Accent4_Fill_v2" stroke="none" stroke-width="1" stroke-linecap="butt" stroke-linejoin="miter" stroke-miterlimit="4" fill="#0E2841" fill-opacity="1"/></svg>