<svg viewBox="0 0 2000 640.33" xmlns="http://www.w3.org/2000/svg" xmlns:xlink="http://www.w3.org/1999/xlink" id="Layer_1" overflow="hidden"><defs></defs><path d="M385.23 560C385.87 560.33 386.49 560.7 387.13 561.02 366.04 578.23 343.62 593.97 320.26 608 291.79 590.91 264.73 571.27 239.75 549.54 214.22 527.33 190.45 502.56 169.09 475.92 128.64 425.48 97.34 369.06 76.04 308.21 65.32 277.58 57.21 245.95 51.89 214.06 52.7 213.5 53.49 212.92 54.3 212.36 55.87 211.27 57.46 210.19 59.04 209.12 60.9 207.87 62.76 206.63 64.64 205.41 66.23 204.37 67.83 203.33 69.44 202.31 71.34 201.1 73.25 199.91 75.17 198.73 76.78 197.74 78.39 196.75 80.01 195.78 81.96 194.61 83.92 193.47 85.89 192.32 87.5 191.38 89.11 190.44 90.74 189.53 92.75 188.39 94.78 187.29 96.81 186.18 98.41 185.31 100.01 184.42 101.63 183.57 103.74 182.45 105.87 181.37 107.99 180.28 109.54 179.49 111.08 178.68 112.64 177.91 115.01 176.73 117.4 175.6 119.79 174.47 121.12 173.84 122.44 173.18 123.78 172.56 127.51 170.83 131.27 169.14 135.04 167.51 164.87 154.62 196.14 144.85 227.99 138.48 285.28 127 345.26 126.38 402.85 136.64 402.7 139.97 402.5 143.3 402.26 146.62 402.18 147.7 402.08 148.77 402 149.84 401.82 152.09 401.63 154.34 401.41 156.58 401.29 157.85 401.14 159.11 401.01 160.37 400.79 162.43 400.55 164.49 400.3 166.55 400.14 167.87 399.96 169.18 399.78 170.5 399.51 172.52 399.22 174.53 398.91 176.54 398.71 177.85 398.51 179.15 398.3 180.46 397.97 182.52 397.61 184.58 397.24 186.63 397.02 187.85 396.81 189.08 396.58 190.3 396.14 192.62 395.67 194.93 395.18 197.23 394.98 198.16 394.8 199.1 394.6 200.03 393.91 203.22 393.17 206.4 392.4 209.56 344.86 200.77 295.51 200.8 247.98 209.6L247.93 209.44 237.19 211.75C204.58 218.74 172.92 229.9 143.08 244.92L134.39 249.29 137.12 258.66C157.03 327.09 192.4 391.73 239.4 445.6 261.58 471.02 286.42 494.24 313.24 514.6 318.46 518.56 323.78 522.38 329.15 526.13 330.16 526.84 331.17 527.55 332.19 528.25 337.41 531.83 342.69 535.32 348.04 538.7 349.04 539.33 350.04 539.94 351.04 540.56 356.46 543.93 361.93 547.23 367.48 550.39 367.67 550.5 367.86 550.62 368.06 550.73 373.73 553.94 379.47 557.01 385.25 560ZM520.59 68.97C521.08 73.8 521.48 78.63 521.83 83.47 521.93 84.79 522 86.11 522.08 87.43 522.34 91.46 522.55 95.5 522.72 99.53 522.78 101.02 522.84 102.52 522.89 104.01 523.05 109.21 523.17 114.4 523.17 119.57 523.17 132.25 522.69 145.05 521.73 157.64 519.14 191.78 512.98 225.78 503.41 258.66 483.5 327.08 448.13 391.73 401.13 445.6L394.29 453.45 385.73 447.53C358.31 428.57 333.32 406.19 311.46 381.02L304.78 373.33 304.87 373.23C271.9 333.21 246.74 286.51 231.52 237.07 228.37 237.84 225.23 238.66 222.09 239.52 221.09 239.79 220.1 240.09 219.1 240.37 216.92 240.99 214.74 241.61 212.56 242.27 211.33 242.64 210.12 243.03 208.89 243.42 206.94 244.03 205 244.65 203.07 245.3 201.79 245.72 200.52 246.16 199.25 246.6 197.36 247.25 195.48 247.91 193.61 248.6 192.35 249.06 191.09 249.52 189.83 249.99 187.92 250.71 186.02 251.45 184.12 252.19 182.93 252.66 181.74 253.12 180.55 253.61 178.48 254.45 176.42 255.32 174.37 256.2 173.38 256.62 172.38 257.03 171.4 257.46 168.37 258.79 165.35 260.15 162.36 261.55 181.76 323.23 214.33 381.35 256.93 430.19 278.06 454.41 301.74 476.54 327.29 495.94 330.52 498.39 333.78 500.8 337.07 503.16 338.08 503.88 339.1 504.58 340.11 505.3 342.4 506.92 344.7 508.54 347.02 510.12 348.28 510.98 349.57 511.81 350.84 512.66 352.93 514.05 355.03 515.45 357.14 516.81 358.54 517.71 359.95 518.58 361.36 519.47 363.38 520.74 365.4 522.01 367.44 523.24 368.92 524.14 370.41 525.02 371.9 525.9 373.89 527.08 375.88 528.25 377.89 529.4 379.42 530.28 380.97 531.14 382.51 532.01 384.51 533.12 386.51 534.23 388.52 535.31 390.08 536.15 391.65 536.98 393.22 537.81 395.25 538.87 397.29 539.92 399.34 540.96 400.9 541.75 402.47 542.54 404.04 543.31 404.86 543.71 405.68 544.1 406.5 544.49 429.87 523.59 451.68 500.56 471.43 475.94 511.88 425.5 543.19 369.07 564.48 308.22 576 275.31 584.51 241.22 589.78 206.92 594.19 178.18 596.42 148.8 596.42 119.58 596.42 114.82 596.34 109.87 596.18 104.35 571.93 90.72 546.59 78.87 520.59 68.98ZM231.52 237.07C228.37 237.84 225.23 238.67 222.1 239.52 225.23 238.66 228.37 237.84 231.53 237.07 231.53 237.07 231.53 237.07 231.53 237.07ZM406.47 544.51C406.47 544.51 406.49 544.49 406.5 544.48 405.68 544.08 404.86 543.7 404.04 543.3 404.85 543.7 405.65 544.12 406.47 544.51ZM55.81 183.24C58.6 181.45 61.41 179.7 64.24 177.97 64.97 177.53 65.69 177.06 66.42 176.62 69.96 174.48 73.52 172.39 77.11 170.34 78.09 169.78 79.09 169.24 80.07 168.69 82.69 167.22 85.32 165.76 87.97 164.33 89.31 163.61 90.65 162.9 92 162.2 94.36 160.96 96.74 159.73 99.12 158.52 100.51 157.82 101.91 157.11 103.31 156.42 105.81 155.19 108.31 153.98 110.83 152.8 112.07 152.22 113.3 151.62 114.54 151.05 118.28 149.32 122.03 147.63 125.8 146 157.12 132.47 189.96 122.21 223.41 115.51 286.93 102.79 353.58 102.79 417.11 115.51L426.68 117.43 426.5 127.22C425.87 160.85 421.04 194.2 412.15 226.34L409.21 236.96 409.05 236.93C393.85 286.37 368.71 333.09 335.75 373.13 335.79 373.17 335.83 373.21 335.86 373.26 339.6 377.34 343.46 381.31 347.37 385.22 347.98 385.83 348.59 386.45 349.21 387.06 353 390.79 356.88 394.43 360.83 398 361.57 398.67 362.31 399.33 363.05 399.99 367.04 403.54 371.1 407.02 375.25 410.4 375.86 410.9 376.48 411.38 377.09 411.87 381.47 415.4 385.91 418.85 390.44 422.18 422.12 384.15 447.85 340.91 466.24 294.98 468.87 288.42 471.35 281.8 473.67 275.14 476.33 267.53 478.78 259.85 481.03 252.12 490.15 220.79 496.02 188.41 498.49 155.88 499.4 143.89 499.86 131.68 499.86 119.59 499.86 114.35 499.76 109.1 499.58 103.84 499.52 102.13 499.41 100.41 499.34 98.69 499.18 95.14 499.02 91.58 498.78 88.03 498.64 85.99 498.46 83.95 498.3 81.91 498.04 78.67 497.77 75.42 497.45 72.19 497.24 70.04 496.99 67.9 496.75 65.75 496.54 63.93 496.31 62.12 496.08 60.31 465.58 50.31 433.98 42.91 402.04 38.26 347.92 30.39 292.65 30.39 238.53 38.26 204.17 43.26 170.2 51.45 137.58 62.62 105.39 73.65 74.06 87.67 44.36 104.37 44.2 109.87 44.12 114.89 44.12 119.6 44.12 142.51 45.49 165.52 48.21 188.23 49.6 187.3 51.01 186.41 52.41 185.5 53.55 184.75 54.69 184 55.84 183.27ZM335.73 373.12C335.73 373.12 335.81 373.2 335.85 373.24 335.81 373.2 335.78 373.15 335.74 373.11 335.74 373.11 335.74 373.11 335.74 373.11Z" fill="#0052B8"/><g><g><g><path d="M1933.9 498.34C1933.9 488.47 1926.49 484.97 1917.84 484.97L1902.21 484.97 1902.21 526.74 1910.65 526.74 1910.65 512.34 1919.08 512.34 1926.28 526.74 1935.74 526.74 1926.28 509.66C1930.8 508.01 1933.9 503.28 1933.9 498.34ZM1916 505.75 1910.66 505.75 1910.66 491.96 1916.41 491.96C1922.59 491.96 1924.85 494.64 1924.85 498.76 1924.85 503.28 1921.56 505.75 1916 505.75Z" fill="#000032"/><path d="M1917.03 465.82C1895.83 465.82 1878.34 482.28 1878.34 506.36 1878.34 530.44 1895.83 546.9 1917.03 546.9 1938.23 546.9 1955.91 530.45 1955.91 506.36 1955.91 482.27 1938.42 465.82 1917.03 465.82ZM1917.03 539.29C1899.74 539.29 1886.57 525.91 1886.57 506.36 1886.57 486.81 1899.74 473.23 1917.03 473.23 1934.32 473.23 1947.69 487.02 1947.69 506.36 1947.69 525.7 1934.31 539.29 1917.03 539.29Z" fill="#000032"/></g><path d="M1517.86 366.68 1517.86 395.78 1549.89 389.14 1549.87 366.68 1517.86 366.68Z" fill="#000032"/><g><path d="M1517.86 544.11 1549.88 544.11 1549.88 406.25 1517.87 412.89 1517.86 544.11Z" fill="#000032"/><path d="M733.34 357.18 649.09 544.12 683.13 544.12 709.42 485.29 709.57 484.99 788.9 484.99 789.05 485.29 815.3 544.12 849.34 544.12 765.09 357.18 733.34 357.18ZM777.01 459.34 721.42 459.34 731.31 437.98C737.1 425.45 743.08 410.56 749.21 393.26L751.81 400.44C753.54 405.07 755.91 411.12 758.88 418.64 761.85 426.12 764.6 432.56 767.12 437.97L777.01 459.33Z" fill="#000032"/><path d="M1199.88 474.87C1199.88 488.15 1196.8 498.34 1190.63 505.45 1184.5 512.6 1176 516.13 1165.24 516.13 1154.48 516.13 1146.51 513.12 1141.88 507.07 1137.25 501.01 1134.96 491.8 1134.96 479.5L1134.96 401.3C1134.96 401.3 1102.91 401.3 1102.91 401.3L1102.91 485.29C1102.91 502.97 1107.09 517.68 1115.47 529.41 1123.82 541.15 1137.25 547.01 1155.72 547.01 1174.19 547.01 1189.27 539.41 1199.88 524.22L1199.88 544.12 1231.89 544.12 1231.89 401.3 1199.88 401.3 1199.88 474.87Z" fill="#000032"/><path d="M1360.97 423.83C1349.42 406.9 1333.93 398.44 1314.52 398.44 1295.11 398.44 1278.79 405.59 1266.19 419.92 1253.59 434.25 1247.31 451.89 1247.31 472.88 1247.31 493.87 1253.59 511.21 1266.19 525.5 1278.79 539.83 1294.89 547.01 1314.52 547.01 1334.15 547.01 1349.61 538.66 1360.97 521.92L1360.97 544.11 1392.98 544.11 1392.98 401.29C1392.98 401.29 1360.97 401.29 1360.97 401.29L1360.97 423.82ZM1349.73 504.02C1342.21 512.11 1332.8 516.13 1321.44 516.13 1309.33 516.13 1299.36 512.07 1291.58 503.87 1283.79 495.71 1279.92 485.36 1279.92 472.88 1279.92 460.4 1283.79 449.97 1291.58 441.7 1299.37 433.43 1309.33 429.29 1321.44 429.29 1332.8 429.29 1342.2 433.43 1349.72 441.7 1357.2 449.98 1360.97 460.36 1360.97 472.88 1360.97 485.4 1357.21 495.94 1349.72 504.02Z" fill="#000032"/><path d="M1447.78 429.58 1447.78 401.3C1447.78 401.3 1415.77 401.3 1415.77 401.3L1415.77 544.12 1447.78 544.12 1447.78 485.86C1447.78 450.84 1465.01 433.35 1499.46 433.35L1499.46 398.44C1485.39 398.44 1474.11 401.49 1465.53 407.66 1456.99 413.83 1451.05 421.13 1447.78 429.59Z" fill="#000032"/><path d="M1640.57 398.44C1619.99 398.44 1602.58 405.7 1588.33 420.22 1574.11 434.74 1567 452.27 1567 472.88 1567 495.56 1574.48 513.62 1589.49 526.97 1604.5 540.32 1622.66 547.02 1644.03 547.02 1663.44 547.02 1681.53 541.34 1698.27 529.98L1685.56 506.32C1673.82 514.59 1660.17 518.73 1644.6 518.73 1633.47 518.73 1623.84 515.72 1615.75 509.66 1607.66 503.6 1602.47 495.07 1600.18 484.12L1708.35 484.12 1709.21 471.71C1709.21 451.51 1702.51 434.25 1689.16 419.92 1675.81 405.59 1659.6 398.44 1640.56 398.44ZM1599.88 460.46C1601.99 450.27 1606.73 442.03 1614.02 435.79 1621.32 429.55 1629.59 426.42 1638.84 426.42 1648.84 426.42 1657.5 429.54 1664.79 435.79 1672.09 442.03 1676.53 450.27 1678.07 460.46L1599.87 460.46Z" fill="#000032"/><path d="M1816.75 471.15C1806.78 464.23 1793.69 459 1777.52 455.54 1771.95 454.41 1767.82 453.43 1765.11 452.68 1762.44 451.89 1759.73 450.5 1757.02 448.47 1754.35 446.48 1753 443.92 1753 440.83 1753 437.18 1755.18 434.21 1759.51 431.88 1763.84 429.59 1768.8 428.42 1774.37 428.42 1787.83 428.42 1800.81 431.99 1813.03 439.16L1824.88 413.21C1808.6 403.34 1791.56 398.45 1774.07 398.45 1760.23 398.45 1747.82 402.33 1736.87 410.11 1725.89 417.9 1720.4 428.35 1720.4 441.44 1720.4 448.17 1721.68 453.97 1724.16 458.89 1726.68 463.78 1730.52 467.88 1735.71 471.15 1740.9 474.42 1746.02 476.94 1750.98 478.79 1755.98 480.63 1762.53 482.66 1770.61 485 1771.78 485.38 1773.36 485.83 1775.39 486.28 1777.38 486.77 1778.93 487.22 1779.98 487.6 1781.07 487.98 1782.43 488.43 1784.19 488.88 1785.92 489.37 1787.31 489.86 1788.37 490.35 1789.42 490.84 1790.63 491.37 1791.98 491.93 1793.33 492.49 1794.31 493.13 1794.99 493.81 1795.67 494.49 1796.38 495.24 1797.17 496.1 1797.92 496.97 1798.45 497.87 1798.75 498.85 1799.05 499.83 1799.16 500.88 1799.16 502.01 1799.16 506.64 1796.3 510.28 1790.51 512.99 1784.76 515.66 1778.21 517.01 1770.91 517.01 1754.74 517.01 1739.44 511.17 1725.38 499.85L1713.48 526.26C1718.86 531.45 1726.53 536.19 1736.42 540.51 1746.35 544.87 1757.82 547.02 1770.91 547.02 1786.48 547.02 1800.51 543.22 1813.04 535.62 1825.53 528.02 1831.77 516.63 1831.77 501.43 1831.77 488.15 1826.77 478.07 1816.76 471.15Z" fill="#000032"/><path d="M923.86 546.99C923.99 546.99 924.12 547.01 924.25 547.01 924.29 547.01 924.33 547.01 924.36 547.01 924.22 547.01 924.09 546.99 923.95 546.99 923.92 546.99 923.89 546.99 923.86 546.99Z" fill="#000032"/><path d="M924.36 547.01C924.36 547.01 924.44 547.01 924.47 547.01 924.6 547.01 924.73 546.99 924.86 546.99 924.83 546.99 924.8 546.99 924.77 546.99 924.63 546.99 924.49 547 924.36 547.01Z" fill="#000032"/><path d="M947.79 503.61C939.71 511.77 929.24 515.91 916.38 516.1 916.24 516.1 916.11 516.08 915.97 516.08 903.31 515.81 892.97 511.68 884.98 503.61 876.71 495.22 872.57 484.99 872.57 472.88 872.57 460.54 876.82 450.2 885.25 441.85 893.61 433.6 903.88 429.41 915.98 429.31 928.08 429.41 938.35 433.61 946.71 441.85 947.09 442.22 947.41 442.62 947.77 443L976.19 427.3C974.23 424.87 972.1 422.5 969.77 420.22 968.73 419.2 967.67 418.22 966.59 417.27 959.02 410.57 950.7 405.66 941.62 402.53 940.42 402.13 939.23 401.74 938 401.4 937.4 401.23 936.8 401.08 936.2 400.92 934.31 400.44 932.4 400 930.45 399.67 930.45 399.67 930.45 399.67 930.44 399.67 925.83 398.86 921.05 398.44 916.09 398.44 916.05 398.44 916.01 398.44 915.98 398.44 915.94 398.44 915.9 398.44 915.87 398.44 910.91 398.44 906.13 398.86 901.52 399.67 901.52 399.67 901.52 399.67 901.51 399.67 899.56 400.01 897.65 400.45 895.76 400.92 895.16 401.08 894.56 401.23 893.96 401.4 892.74 401.74 891.54 402.14 890.34 402.53 881.26 405.65 872.94 410.57 865.37 417.27 864.3 418.22 863.23 419.2 862.19 420.22 847.37 434.74 839.96 452.27 839.96 472.88 839.96 486.66 843.3 499.04 849.94 510.06 853.22 515.5 857.29 520.61 862.19 525.39 862.72 525.9 863.25 526.38 863.79 526.88 873.49 535.85 884.46 541.84 896.73 544.81 898.3 545.16 899.86 545.53 901.47 545.79 901.61 545.81 901.74 545.83 901.88 545.86 906.26 546.6 910.79 546.99 915.48 547.01 915.51 547.01 915.54 547.01 915.57 547.01 915.71 547.01 915.85 547.02 915.98 547.03 916.12 547.03 916.25 547.01 916.39 547.01 916.42 547.01 916.45 547.01 916.48 547.01 921.17 546.99 925.7 546.6 930.08 545.86 930.22 545.84 930.35 545.82 930.49 545.79 932.1 545.52 933.66 545.16 935.23 544.81 947.49 541.84 958.46 535.85 968.17 526.88 968.7 526.39 969.24 525.91 969.77 525.39 974.67 520.62 978.74 515.5 982.02 510.06L955.77 492.51C953.78 496.51 951.15 500.22 947.8 503.61Z" fill="#000032"/><path d="M1077.27 512.39 1074.39 514.12C1072.66 515.27 1070.06 516.43 1066.59 517.58 1063.14 518.73 1059.77 519.31 1056.49 519.31 1046.3 519.31 1041.2 512.58 1041.2 499.12L1041.2 427.57 1084.19 427.57 1084.19 401.31 1041.2 401.31 1041.2 366.69 1009.17 366.69 1009.17 401.31 994.45 401.31 982.51 427.57 1009.17 427.57 1009.17 498.25C1009.17 530.76 1023.6 547.01 1052.45 547.01 1064.38 547.01 1075.82 543.45 1086.79 536.34L1077.27 512.4Z" fill="#000032"/></g></g><g><g><path d="M769.69 272.72C761.94 277.33 752.92 279.63 742.59 279.63 720.29 279.63 699 272.61 681.68 258.6L670.7 282.95C689.13 300.09 713 308.66 742.3 308.66 761.84 308.66 778.8 303.96 793.18 294.56 807.55 285.16 814.74 271.71 814.74 254.19 814.74 245.9 812.93 238.52 809.34 232.07 805.75 225.62 800.54 220.32 793.72 216.18 786.9 212.03 779.99 208.62 772.98 205.95 765.97 203.28 757.59 200.84 747.83 198.62 734.74 195.49 725.21 192.26 719.21 188.94 713.22 185.62 710.22 180.74 710.22 174.29 710.22 169.31 712.15 165.12 716.02 161.71 719.89 158.3 724.13 156 728.74 154.8 733.34 153.61 737.96 153.01 742.56 153.01 760.99 153.01 779.17 158.36 794.83 168.31L806.14 143.33C787.16 130.43 765.96 123.97 742.55 123.97 724.67 123.97 709.38 128.44 696.66 137.38 683.94 146.32 677.58 158.71 677.58 174.56 677.58 181.38 678.92 187.56 681.59 193.08 684.26 198.61 687.53 203.13 691.4 206.63 695.27 210.13 700.43 213.4 706.88 216.44 713.34 219.48 719.24 221.78 724.57 223.35 729.92 224.92 736.55 226.62 744.48 228.46 752.41 230.31 758.49 231.96 762.73 233.44 766.96 234.91 771.11 237.45 775.17 241.05 779.23 244.65 781.25 249.02 781.25 254.18 781.25 261.92 777.38 268.1 769.64 272.7Z" fill="#000032"/><path d="M897.99 308.66C918.07 308.66 935.22 301.71 949.41 287.79 963.61 273.87 970.71 257.15 970.71 237.61 970.71 218.07 963.61 201.07 949.41 187.16 935.22 173.24 918.08 166.28 897.99 166.28 877.9 166.28 860.76 173.24 846.56 187.16 832.36 201.07 825.28 217.89 825.28 237.61 825.28 257.33 832.37 273.87 846.56 287.79 860.76 301.71 877.89 308.66 897.99 308.66ZM868.68 208.17C876.79 199.97 886.56 195.87 898 195.87 909.44 195.87 919.19 199.97 927.3 208.17 935.41 216.37 939.46 226.18 939.46 237.61 939.46 249.04 935.42 259.03 927.3 267.05 919.19 275.07 909.42 279.08 898 279.08 886.58 279.08 876.8 275.07 868.68 267.05 860.58 259.03 856.52 249.22 856.52 237.61 856.52 226 860.58 216.37 868.68 208.17Z" fill="#000032"/><path d="M1193.94 289.45C1208.31 302.26 1225.73 308.67 1246.2 308.67 1264.82 308.67 1282.14 303.23 1298.18 292.36L1286.01 269.69C1274.76 277.62 1261.68 281.57 1246.75 281.57 1236.06 281.57 1226.84 278.67 1219.1 272.86 1211.36 267.06 1206.38 258.9 1204.17 248.39L1307.85 248.39 1308.68 236.5C1308.68 217.15 1302.27 200.6 1289.46 186.87 1276.66 173.14 1261.12 166.27 1242.88 166.27 1223.16 166.27 1206.48 173.23 1192.84 187.15 1179.2 201.06 1172.38 217.88 1172.38 237.6 1172.38 259.35 1179.56 276.63 1193.94 289.44ZM1214.76 202.08C1221.77 196.09 1229.69 193.09 1238.54 193.09 1248.12 193.09 1256.41 196.09 1263.41 202.08 1270.42 208.07 1274.66 215.95 1276.13 225.72L1201.21 225.72C1203.23 215.95 1207.75 208.07 1214.75 202.08Z" fill="#000032"/><path d="M1400.16 275.49 1397.4 277.15C1395.74 278.25 1393.25 279.36 1389.93 280.47 1386.62 281.57 1383.39 282.13 1380.26 282.13 1370.49 282.13 1365.61 275.68 1365.61 262.78L1365.61 194.21 1406.8 194.21 1406.8 169.05 1365.61 169.05 1365.61 135.88 1334.92 135.88 1334.92 169.05 1320.82 169.05 1309.38 194.21 1334.92 194.21 1334.92 261.94C1334.92 293.09 1348.74 308.66 1376.39 308.66 1387.82 308.66 1398.78 305.25 1409.3 298.43L1400.17 275.48Z" fill="#000032"/><path d="M1474.53 298.16C1471.21 305.35 1467.38 310.42 1463.05 313.37 1458.73 316.32 1452.5 317.79 1444.39 317.79L1444.39 346.54C1470.2 346.54 1488.17 335.02 1498.3 311.99L1560.79 169.05 1529.82 169.05 1500.24 240.66 1491.4 263.61 1482.54 242.05 1449.65 169.06 1418.13 169.06 1477.3 292.65 1474.54 298.18Z" fill="#000032"/><path d="M1158.68 135.87 1128 135.87 1128 163.76 1158.69 157.39 1158.68 135.87Z" fill="#000032"/><path d="M1158.68 173.79 1128 180.15 1128 305.9 1158.68 305.9 1158.68 173.79Z" fill="#000032"/><path d="M1002.78 289.36C1012.08 297.95 1022.59 303.69 1034.34 306.54 1035.84 306.88 1037.34 307.23 1038.88 307.48 1039.01 307.5 1039.14 307.52 1039.27 307.54 1043.46 308.25 1047.81 308.62 1052.3 308.64 1052.33 308.64 1052.36 308.64 1052.39 308.64 1052.52 308.64 1052.65 308.64 1052.79 308.66 1052.92 308.66 1053.05 308.65 1053.19 308.64 1053.22 308.64 1053.25 308.64 1053.28 308.64 1057.77 308.62 1062.12 308.25 1066.31 307.54 1066.44 307.52 1066.57 307.5 1066.7 307.48 1068.24 307.23 1069.74 306.88 1071.24 306.54 1082.99 303.69 1093.5 297.95 1102.8 289.36 1103.31 288.89 1103.83 288.43 1104.33 287.94 1109.02 283.37 1112.92 278.47 1116.07 273.25L1090.92 256.43C1089.01 260.26 1086.49 263.82 1083.28 267.07 1075.53 274.89 1065.5 278.86 1053.18 279.04 1053.04 279.04 1052.92 279.02 1052.78 279.02 1040.65 278.76 1030.74 274.8 1023.08 267.07 1015.15 259.03 1011.19 249.23 1011.19 237.62 1011.19 225.8 1015.26 215.89 1023.34 207.88 1031.35 199.98 1041.19 195.96 1052.79 195.86 1064.39 195.96 1074.23 199.98 1082.24 207.88 1082.6 208.24 1082.91 208.62 1083.26 208.98L1110.49 193.94C1108.61 191.61 1106.57 189.34 1104.34 187.15 1103.34 186.17 1102.32 185.24 1101.29 184.33 1094.04 177.91 1086.07 173.2 1077.37 170.21 1076.22 169.83 1075.08 169.45 1073.9 169.12 1073.33 168.96 1072.75 168.81 1072.17 168.66 1070.36 168.2 1068.53 167.78 1066.66 167.46 1066.66 167.46 1066.66 167.46 1066.65 167.46 1062.23 166.68 1057.65 166.28 1052.9 166.28 1052.86 166.28 1052.83 166.28 1052.79 166.28 1052.75 166.28 1052.72 166.28 1052.68 166.28 1047.93 166.28 1043.35 166.68 1038.93 167.46 1038.93 167.46 1038.93 167.46 1038.92 167.46 1037.05 167.78 1035.22 168.2 1033.41 168.66 1032.83 168.81 1032.26 168.95 1031.68 169.12 1030.51 169.45 1029.36 169.82 1028.21 170.21 1019.51 173.2 1011.54 177.91 1004.29 184.33 1003.26 185.24 1002.24 186.18 1001.24 187.15 987.04 201.06 979.94 217.86 979.94 237.61 979.94 250.81 983.14 262.68 989.51 273.24 992.65 278.45 996.55 283.35 1001.25 287.93 1001.75 288.42 1002.27 288.88 1002.78 289.35Z" fill="#000032"/></g><g><path d="M1591.78 237.26C1591.78 197.59 1624.02 166.18 1664.24 166.18 1704.46 166.18 1736.7 197.59 1736.7 237.26 1736.7 276.93 1704.46 308.07 1664.24 308.07 1624.02 308.07 1591.78 276.66 1591.78 237.26ZM1705.57 237.26C1705.57 213.29 1687.66 195.66 1664.24 195.66 1640.82 195.66 1622.91 213.29 1622.91 237.26 1622.91 261.23 1640.82 278.59 1664.24 278.59 1687.66 278.59 1705.57 260.96 1705.57 237.26Z" fill="#000032"/><path d="M1788.77 165.63C1788.77 148.82 1796.21 144.42 1805.03 144.42 1813.85 144.42 1819.63 148 1822.66 149.38L1831.75 126.79C1823.21 122.11 1809.98 117.97 1797.31 117.97 1775.82 117.97 1758.19 129.82 1758.19 162.33L1758.19 171.68 1747.99 171.68 1737.68 194.35 1736.7 196.5 1736.7 196.5 1736.7 196.5C1736.7 196.5 1758.19 196.5 1758.19 196.5L1758.19 308.08 1788.77 308.08 1788.77 196.5 1826.52 196.5 1826.52 171.7 1788.77 171.7 1788.77 165.64Z" fill="#000032"/></g></g></g></svg>